<svg xmlns="http://www.w3.org/2000/svg" version="1.1" xmlns:xlink="http://www.w3.org/1999/xlink" xmlns:svgjs="http://svgjs.dev/svgjs" width="1000" height="1000" viewBox="0 0 1000 1000"><rect width="1000" height="1000" fill="#ffffff"></rect><g transform="matrix(0.7,0,0,0.7,150.0000000000001,106.25)"><svg viewBox="0 0 320 360" data-background-color="#ffffff" preserveAspectRatio="xMidYMid meet" height="1125" width="1000" xmlns="http://www.w3.org/2000/svg" xmlns:xlink="http://www.w3.org/1999/xlink"><g id="tight-bounds" transform="matrix(1,0,0,1,0,0)"><svg viewBox="0 0 320 360" height="360" width="320"><g><svg></svg></g><g><svg viewBox="0 0 320 360" height="360" width="320"><g><path xmlns="http://www.w3.org/2000/svg" d="M20.961 227.22l3.726 4.658-1.863-6.056c-0.466-2.795-3.726 0.466-1.863 1.398M25.153 224.425c1.397 2.329 2.795 4.658 2.795 6.987 0 3.261 2.795 4.658 5.123 5.589-3.261-3.726-5.124-13.974-7.918-12.576M204.017 26.929c7.918 0 15.371-0.932 23.756 0.931 20.495 5.124 37.729 15.371 49.374 29.811l32.606 52.169c1.397 13.042 4.192 27.482 3.726 43.319 3.261 0 2.795-4.658 6.521-5.59-3.726 9.316-5.59 20.961-6.521 34.469-2.329-7.453 0-18.632 0.466-24.687-3.261 5.124-5.124 1.397-5.124-0.932 0.466-3.726-1.397-3.261-2.795-4.658-5.124-4.658-8.384-9.782-12.11-17.7 2.329-6.055 2.795-14.905-4.658-19.563-2.329-1.397-5.124-3.726-6.521-7.453-1.863-5.124-5.124-11.179-4.193-19.097 0.466-2.329-6.987 5.124-11.179 1.863-18.166-12.576-36.332-27.016-58.224-39.127-11.645 0-20.029-4.192-24.221-9.316-3.726-4.658-0.932-10.713 4.658-11.179 3.261 0 6.987-0.932 9.782 0.932 0.466-1.863 2.329-4.192 4.657-4.192M157.904 16.215l0.932 0.466c4.658 0.932 6.987 7.453 12.11 5.124 0 3.261 0.466 6.521-0.466 8.85-1.397 3.726-5.59 3.726-8.85 3.726-31.208-1.863-49.374 11.179-68.471 22.358-5.124 3.261-10.713 5.59-14.906 9.782-20.029 18.632-41.921 35.866-47.045 70.335l-4.192 38.195c-0.466 4.192-5.124 8.384-4.192 13.508l3.26 22.824c-3.261-3.261-5.124 0.932-4.192 2.795 0.466 1.397 2.329 6.055 5.124 1.863 3.726 6.987 7.453 20.495 12.576 26.55 15.837 18.632 36.332 35.4 53.101 52.169 4.192-0.932 7.453-0.932 8.384-3.727 1.397 2.795-1.397 5.59-3.726 6.056 7.453 4.658 15.837 8.85 27.016 9.781 14.44 0.932 27.948 3.261 40.524 6.522 6.521-1.863 13.042-2.795 20.029-3.261 2.329 0 3.726-3.726 6.521-4.658l0.466-4.658c2.795 4.192 2.329-1.397 0.466-4.192 3.261 2.795 4.192 5.124 5.589 6.987 0-1.397 3.726-6.521 3.727-0.466l0.931-6.055c1.397-0.932 1.863 5.124 3.261 0.931 1.397-4.192 4.192-0.932 6.987-2.329-0.932 1.863-0.466 5.59 2.794 3.261l3.727-3.261c2.329 5.59 6.055 3.261 7.918 2.329 20.495-13.042 40.99-28.413 60.553-43.784l-0.466 6.055 2.329-7.453c2.329 2.329 4.192 0.466 5.124-0.931 2.795-4.658 6.521-9.316 12.577-13.508-7.453 20.029-16.303 35.866-27.482 48.908l-4.658 5.59c0 3.261-0.932 7.453-4.658 7.918-1.863 0.466-5.59-0.932-8.384 1.863-1.397 1.863 3.261 5.59-0.466 2.795-3.261-2.329-6.521 0-10.248 0.932-2.795 0.932 1.863 3.726 2.795 5.589 0.932 1.863 1.863 3.726 1.398 6.056l-5.124-5.59c-6.055 3.261-9.782 9.316-14.906 13.974-2.329 1.863-1.397 5.124-1.397 7.918-3.261 0-6.987-0.932-8.85 0.932-1.397 1.863-0.932 4.658-0.932 7.453-4.658-0.466-5.124-7.453-9.315-6.056-4.192 0.932-8.85 1.397-12.577 3.727 2.795 5.59-4.658 2.329-3.726 3.26-6.987-4.192-13.042-7.453-20.495-4.658-15.837-5.124-35.4-2.795-49.84-0.931 0-2.329 0.466-4.658-0.466-5.124-0.932 2.329-3.726 1.397-3.26 1.397-8.85-6.055-17.7-9.782-27.016-14.905-8.384 0.932-16.303-3.261-18.632-5.59-6.521-6.055-13.974-2.795-20.029-4.192-13.042-3.261-17.7-16.769-19.098-26.084-0.932-4.658-4.658-6.521-6.055-6.056-6.055-19.563-15.371-37.263-22.824-55.429-1.863-4.658-1.397-9.316-1.397-14.44 2.329 0.932 4.658 0.466 4.192-2.794-2.329-15.371-7.918-27.016-13.974-38.195 3.261-15.837 3.726-34.469 11.179-48.443 6.521-12.576 18.632-19.098 27.016-29.811 2.795-3.726 2.795-8.85 5.59-12.11 9.316-9.316 18.632-19.098 28.879-27.482 4.658-3.726 10.247 0 17.234-1.397 2.329-8.384 11.645-15.837 20.495-13.508 3.726 0.932 11.179-8.85 13.508-9.782 3.726-1.397 1.863 3.726 1.863 6.987 8.85-6.987 20.961-10.713 32.14-14.906" fill="#ef86c1" fill-rule="nonzero" stroke="none" stroke-width="1" stroke-linecap="butt" stroke-linejoin="miter" stroke-miterlimit="10" stroke-dasharray="" stroke-dashoffset="0" font-family="none" font-weight="none" font-size="none" text-anchor="none" style="mix-blend-mode: normal" data-fill-palette-color="tertiary"></path></g><g transform="matrix(1,0,0,1,64,164.9507069163164)"><svg viewBox="0 0 192 30.098586167367216" height="30.098586167367216" width="192"><g><svg viewBox="0 0 192 30.098586167367216" height="30.098586167367216" width="192"><g><svg viewBox="0 0 192 30.098586167367216" height="30.098586167367216" width="192"><g><svg viewBox="0 0 192 30.098586167367216" height="30.098586167367216" width="192"><g id="textblocktransform"><svg viewBox="0 0 192 30.098586167367216" height="30.098586167367216" width="192" id="textblock"><g><svg viewBox="0 0 192 30.098586167367216" height="30.098586167367216" width="192"><g transform="matrix(1,0,0,1,0,0)"><svg width="192" viewBox="1.6100000143051147 -39.060001373291016 255.5500030517578 40.060001373291016" height="30.098586167367216" data-palette-color="#ef86c1"><path d="M6.23-0.17L6.23-0.17Q5.32 0.49 4.16 0.49 3 0.49 2.31-0.11 1.61-0.71 1.61-1.49 1.61-2.27 1.86-2.64L1.86-2.64Q2.56-2.22 4.1-2.22L4.1-2.22Q4.71-2.22 5.44-2.84 6.18-3.47 6.62-4.57L6.62-4.57 6.62-16.02Q6.62-17.16 6.13-17.72L6.13-17.72Q5.4-18.6 3.64-19.46L3.64-19.46Q5.42-20.31 5.88-20.87L5.88-20.87Q6.62-21.8 6.62-22.95L6.62-22.95 6.64-33.59Q6.05-35.13 4.05-35.13L4.05-35.13Q3.03-35.13 2.54-34.72L2.54-34.72Q2.29-35.03 2.29-35.55 2.29-36.06 2.51-36.47 2.73-36.89 3.13-37.21L3.13-37.21Q3.96-37.84 5.35-37.84 6.74-37.84 7.64-37.04L7.64-37.04Q8.45-37.84 9.52-37.84 10.6-37.84 11.35-36.94L11.35-36.94Q12.3-37.84 13.04-37.84 13.77-37.84 14.16-37.72 14.55-37.6 14.94-37.26L14.94-37.26Q15.72-36.65 16.58-34.79L16.58-34.79 25.93-15.38 33.64-34.4 34.33-35.99Q34.94-37.33 35.47-37.59 36.01-37.84 36.73-37.84 37.45-37.84 38.21-37.3L38.21-37.3Q39.14-37.84 40.64-37.84 42.14-37.84 43.24-37.04L43.24-37.04Q44.21-37.84 45.28-37.84 46.34-37.84 46.94-37.67 47.53-37.5 47.97-37.21L47.97-37.21Q48.9-36.55 48.9-35.57L48.9-35.57Q48.9-35.08 48.63-34.72L48.63-34.72Q48.1-35.13 47.27-35.13L47.27-35.13Q45.41-35.13 44.75-33.4L44.75-33.4 44.75-22.95Q44.75-21.75 45.26-21.17L45.26-21.17Q46.07-20.21 47.73-19.46L47.73-19.46Q45.95-18.58 45.46-18.02L45.46-18.02Q44.75-17.14 44.75-16.02L44.75-16.02 44.75-4.08Q45.58-2.22 47.75-2.22L47.75-2.22Q48.58-2.22 49.12-2.64L49.12-2.64Q49.39-2.27 49.39-1.79 49.39-1.32 49.11-0.9 48.83-0.49 48.34-0.2L48.34-0.2Q47.22 0.49 45.78 0.49 44.34 0.49 43.09-0.29L43.09-0.29Q41.94 0.49 40.48 0.49L40.48 0.49Q38.92 0.49 37.72-0.29L37.72-0.29Q36.47 0.49 35.41 0.49 34.35 0.49 33.67 0.31 32.98 0.12 32.47-0.2L32.47-0.2Q31.42-0.83 31.42-1.78L31.42-1.78Q31.42-2.27 31.69-2.64L31.69-2.64Q32.23-2.22 33.06-2.22L33.06-2.22Q35.23-2.22 36.06-4.08L36.06-4.08 36.06-30.76 26.54-7.18 25.49-4.79Q24.73-3.08 24.43-2.86 24.12-2.64 23.93-2.64L23.93-2.64Q23.32-2.64 23.07-2.76L23.07-2.76 10.03-28.47 10.03-4.59Q10.5-3.47 11.3-2.84 12.11-2.22 13.11-2.22 14.11-2.22 14.82-2.64L14.82-2.64Q15.09-2.2 15.09-1.43 15.09-0.66 14.33-0.09 13.57 0.49 12.38 0.49 11.18 0.49 10.18-0.12L10.18-0.12Q9.3 0.49 8.17 0.49 7.03 0.49 6.23-0.17ZM21.92-13.65L13.48-30.54Q13.23-30.18 13.23-29.49L13.23-29.49Q13.23-27.51 14.89-24.24L14.89-24.24 23.78-6.49Q23.95-6.71 23.95-7.42L23.95-7.42Q23.95-9.55 21.92-13.65L21.92-13.65ZM38.4-30.52L38.4-6.47Q39.62-6.93 39.75-9.67L39.75-9.67Q39.89-12.4 39.89-17.24 39.89-22.07 39.88-23.67 39.87-25.27 39.84-26.25L39.84-26.25Q39.77-29.13 39.29-29.72 38.82-30.32 38.4-30.52L38.4-30.52ZM9.72-5.86L9.69-6.15Q9.69-5.96 9.72-5.86L9.72-5.86ZM6.93-5.86L6.96-6.15Q6.93-6.05 6.93-5.86L6.93-5.86ZM70.36-2.32L70.36-2.32Q68.14 0.61 63.69 0.61L63.69 0.61Q58.27 0.61 55.56-2.64L55.56-2.64Q54.39-4.03 53.95-5.74L53.95-5.74Q53.71-6.76 53.1-7.31 52.49-7.86 51.58-8.3L51.58-8.3Q53.34-9.11 54.1-11.33L54.1-11.33Q54.9-13.67 56.78-14.72L56.78-14.72Q58.81-15.82 61.25-15.88 63.69-15.94 64.87-16.04 66.04-16.14 66.94-16.36L66.94-16.36Q68.63-16.75 69.58-17.8L69.58-17.8 69.58-21.46Q69.58-23.88 68.59-25 67.6-26.12 65.59-26.12 63.57-26.12 62.61-25.38 61.64-24.63 61.64-23.39L61.64-23.39Q61.64-21.48 63.6-21.53L63.6-21.53Q63.21-19.63 61.55-19.63L61.55-19.63Q61.06-19.63 60.59-19.8L60.59-19.8 60.59-19.73Q60.59-19.09 61.18-18.92L61.18-18.92Q60.57-17.99 59.13-18.02 57.69-18.04 56.88-19.56L56.88-19.56Q56.52-19.46 56.04-19.46 55.56-19.46 54.99-19.78 54.42-20.09 54.07-20.65L54.07-20.65Q55.3-21.39 55.56-22.92L55.56-22.92Q55.86-24.8 58.57-26.73L58.57-26.73Q61.84-29.05 66.92-29.05L66.92-29.05Q75.34-29.05 77.19-23.88L77.19-23.88Q77.81-22.14 77.81-19.78L77.81-19.78 77.81-17.8Q77.81-16.6 78.4-15.84 79-15.09 80.44-14.6L80.44-14.6Q78.9-13.89 78.46-13.33L78.46-13.33Q77.81-12.48 77.81-11.38L77.81-11.38 77.81-4.05Q78.51-2.22 79.83-2.22L79.83-2.22Q80.66-2.22 81.2-2.64L81.2-2.64Q81.54-2.17 81.54-1.48 81.54-0.78 80.84-0.15 80.15 0.49 78.76 0.49 77.37 0.49 76.17-0.29L76.17-0.29Q75.12 0.49 74.3 0.49 73.48 0.49 72.89 0.33 72.29 0.17 71.77-0.17L71.77-0.17Q70.63-0.93 70.36-2.32ZM71.9-22.73L71.9-6.47Q73.31-7.03 73.39-11.87L73.39-11.87Q73.39-12.89 73.39-14.21 73.39-15.53 73.37-16.47 73.36-17.41 73.34-18.26L73.34-18.26Q73.24-21.34 72.78-21.94 72.31-22.53 71.9-22.73L71.9-22.73ZM62.89-8.2L62.89-8.2Q62.89-7.18 63.11-6.2 63.33-5.22 63.77-4.49L63.77-4.49Q64.74-2.95 66.53-2.95L66.53-2.95Q67.87-2.95 68.75-4.05L68.75-4.05Q69.58-5.13 69.58-6.81L69.58-6.81 69.58-14.77Q68.02-13.87 65.57-13.53L65.57-13.53Q62.89-13.11 62.89-8.2ZM59.23-2.71L59.23-2.71Q59.47-2.88 59.47-3.15L59.47-3.15Q59.47-3.52 59.13-4.17L59.13-4.17Q57.91-6.42 57.91-7.86 57.91-9.3 58.02-9.94 58.13-10.57 58.31-11.02 58.49-11.47 58.73-11.82 58.96-12.16 59.13-12.43L59.13-12.43Q59.45-12.99 59.45-13.2 59.45-13.4 59.23-13.55L59.23-13.55Q58.23-13.09 57.76-12.45L57.76-12.45Q56.93-11.33 56.54-9.55L56.54-9.55Q56.44-9.03 54.83-8.3L54.83-8.3Q56.39-7.59 56.54-7.06L56.54-7.06Q57.37-4.15 59.23-2.71ZM107.49 0.49L107.49 0.49Q104.05 0.49 103.78-4.27L103.78-4.27Q102.53-2.03 100.42-0.71 98.31 0.61 95.88 0.61 93.45 0.61 91.94-0.05 90.42-0.71 89.42-1.95L89.42-1.95Q87.47-4.39 87.47-8.89L87.47-8.89 87.47-10.4Q87.47-13.23 84.49-14.6L84.49-14.6Q86.25-15.45 86.74-16.04L86.74-16.04Q87.47-16.94 87.47-18.07L87.47-18.07 87.47-21.36Q87.47-23.44 86.05-23.61L86.05-23.61Q85.64-23.66 85-23.66 84.37-23.66 83.83-23.24L83.83-23.24Q83.49-23.71 83.49-24.21 83.49-24.71 83.75-25.33 84-25.95 84.54-26.51L84.54-26.51Q85.81-27.83 87.5-27.83 89.18-27.83 90.67-27.27L90.67-27.27Q91.74-28.81 93.21-28.81L93.21-28.81Q95.72-28.81 95.72-26.17L95.72-26.17 95.72-10.28Q95.72-5.64 97.87-4.71L97.87-4.71Q98.55-4.42 99.4-4.42 100.24-4.42 100.92-4.77 101.61-5.13 102.12-5.74L102.12-5.74Q103.07-6.93 103.34-9.01L103.34-9.01 103.34-21.36Q103.34-24.15 101.07-24.15L101.07-24.15Q100.24-24.15 99.7-23.73L99.7-23.73Q99.36-24.19 99.36-24.69 99.36-25.2 99.62-25.74 99.87-26.29 100.41-26.76L100.41-26.76Q101.61-27.83 103.33-27.83 105.05-27.83 106.54-27.27L106.54-27.27Q107.61-28.81 109.08-28.81L109.08-28.81Q111.59-28.81 111.59-26.17L111.59-26.17 111.59-18.07Q111.59-16.94 112.03-16.41L112.03-16.41Q112.81-15.45 114.57-14.6L114.57-14.6Q111.59-13.23 111.59-10.4L111.59-10.4 111.59-4.1Q112.06-2.22 113.62-2.22L113.62-2.22Q114.45-2.22 114.99-2.64L114.99-2.64Q115.33-2.17 115.33-1.48 115.33-0.78 114.63-0.15 113.94 0.49 112.46 0.49 110.98 0.49 109.66-0.29L109.66-0.29Q108.69 0.49 107.49 0.49ZM105.66-22.73L105.66-6.47Q107.08-7.03 107.15-11.87L107.15-11.87Q107.15-12.89 107.15-14.21 107.15-15.53 107.14-16.47 107.12-17.41 107.1-18.26L107.1-18.26Q107-21.34 106.54-21.94 106.07-22.53 105.66-22.73L105.66-22.73ZM91.13-11.38L91.06-14.6 91.13-17.82Q91.13-20 90.99-20.7L90.99-20.7Q90.57-22.56 89.81-22.73L89.81-22.73 89.81-21.14Q89.81-17.02 89.63-16.3 89.45-15.58 89.05-15.22 88.64-14.87 87.86-14.6L87.86-14.6Q89.33-14.09 89.52-13.35L89.52-13.35Q89.81-12.18 89.81-8.06L89.81-8.06 89.81-6.47Q90.55-6.64 91.01-8.64L91.01-8.64Q91.13-9.2 91.13-11.38L91.13-11.38ZM123.43-0.59L123.43-0.59Q121.77 1 120.23 1L120.23 1Q119.38 1 119.06 0.37L119.06 0.37Q119.62-0.2 119.62-0.76 119.62-1.32 119.45-1.61L119.45-1.61 119.13-2.17 119.52-1.44Q118.94-1.71 118.62-2.34 118.3-2.98 118.3-3.89 118.3-4.81 119.33-5.98L119.33-5.98Q118.84-6.67 118.84-7.5 118.84-8.33 119.12-8.87 119.4-9.42 119.84-9.86L119.84-9.86Q120.82-10.79 121.92-10.79L121.92-10.79Q122.65-10.79 122.97-10.28L122.97-10.28Q122.31-9.57 122.31-8.04 122.31-6.52 122.83-5.44 123.36-4.37 124.26-3.61L124.26-3.61Q126.16-2 128.95-2L128.95-2Q132.05-2 133.24-4.27L133.24-4.27Q133.59-4.96 133.59-5.65 133.59-6.35 133.27-6.9 132.95-7.45 132.44-7.96L132.44-7.96Q131.58-8.79 129.83-9.86L129.83-9.86Q128.14-11.06 125.85-11.06L125.85-11.06Q124.36-11.06 123.85-10.82L123.85-10.82Q124.16-11.55 124.16-12.28 124.16-13.01 123.19-13.88 122.21-14.75 121.44-15.63 120.67-16.5 120.21-17.38L120.21-17.38Q119.28-19.04 119.28-20.9 119.28-22.75 120.05-24.18 120.82-25.61 122.21-26.64L122.21-26.64Q125.11-28.81 129.66-28.81L129.66-28.81Q131.85-28.81 132.67-28.61 133.49-28.42 133.98-28.25L133.98-28.25Q134.64-28 135.59-28 136.54-28 136.92-28.42 137.3-28.83 137.3-29.19 137.3-29.54 137.22-29.74L137.22-29.74Q137.37-29.79 137.66-29.79 137.96-29.79 138.33-29.61 138.71-29.44 139.01-29.15L139.01-29.15Q139.59-28.49 139.59-27.75 139.59-27 139.3-26.61L139.3-26.61Q139.98-25.98 139.98-24.8 139.98-23.63 139.01-22.83L139.01-22.83Q139.23-22.39 139.23-21.75 139.23-21.12 138.54-20.53 137.86-19.95 137.25-19.95L137.25-19.95Q136.2-19.95 135.83-20.21L135.83-20.21Q136.15-21 136.15-21.91 136.15-22.83 135.66-23.66 135.17-24.49 134.42-25L134.42-25Q133-25.98 131.05-25.98L131.05-25.98Q128.58-25.98 127.73-24.41L127.73-24.41Q127.46-23.93 127.46-23.35 127.46-22.78 127.62-22.3 127.78-21.83 128.14-21.34L128.14-21.34Q128.85-20.39 130.14-19.53L130.14-19.53Q131.83-18.43 132.49-18.43L132.49-18.43Q133.9-18.43 134.95-19.12L134.95-19.12Q134.66-17.94 134.66-17.48L134.66-17.48Q134.66-16.77 135.78-15.84L135.78-15.84Q138.93-13.67 140.08-11.87L140.08-11.87Q141.18-10.11 141.18-7.96 141.18-5.81 140.23-4.28 139.27-2.76 137.64-1.66L137.64-1.66Q134.25 0.61 129.41 0.61L129.41 0.61Q126.12 0.61 123.43-0.59ZM122.58-22.95L122.58-22.95Q121.87-22.61 121.87-21.06 121.87-19.51 122.87-18.1 123.87-16.7 126.04-14.94L126.04-14.94Q126.56-14.55 126.56-14.18L126.56-14.18Q126.56-13.62 126.46-13.28L126.46-13.28Q126.75-13.35 127.48-13.43L127.48-13.43Q129.26-13.6 131.9-11.77L131.9-11.77Q136.1-9.18 136.1-6.32L136.1-6.32Q136.1-5.25 135.81-4.71L135.81-4.71Q136.69-4.88 137.15-6.2L137.15-6.2Q137.27-6.59 137.27-7.01L137.27-7.01Q137.27-8.98 135.14-11.02 133-13.06 129-14.97L129-14.97Q122.36-18.33 122.58-22.95ZM149.16-0.29L149.16-0.29Q148.04 0.49 146.61 0.49 145.18 0.49 144.48-0.15 143.79-0.78 143.79-1.37L143.79-1.37Q143.79-2.17 144.13-2.64L144.13-2.64Q144.67-2.22 145.5-2.22L145.5-2.22Q146.91-2.22 147.52-3.86L147.52-3.86 147.52-11.38Q147.52-12.6 147.06-13.04L147.06-13.04Q146.5-13.62 144.55-14.58L144.55-14.58Q146.25-15.36 146.72-15.82L146.72-15.82Q147.52-16.63 147.52-17.8L147.52-17.8 147.52-31.62Q147.52-34.4 145.25-34.4L145.25-34.4Q144.42-34.4 143.89-33.98L143.89-33.98Q143.54-34.45 143.54-34.95 143.54-35.45 143.8-35.91 144.06-36.38 144.57-36.77L144.57-36.77Q145.74-37.6 147.5-37.6 149.26-37.6 150.23-37.38L150.23-37.38Q151.58-39.06 153.26-39.06L153.26-39.06Q155.78-39.06 155.78-36.43L155.78-36.43 155.78-24.39Q158.14-28.81 163.52-28.81L163.52-28.81Q169.67-28.81 171.35-23.36L171.35-23.36Q171.89-21.63 171.89-19.43L171.89-19.43 171.89-17.8Q171.89-16.65 172.4-16.14L172.4-16.14Q173.16-15.38 174.87-14.6L174.87-14.6Q173.01-13.7 172.57-13.21L172.57-13.21Q171.89-12.45 171.89-11.38L171.89-11.38 171.89-3.74Q172.35-2.22 173.92-2.22L173.92-2.22Q174.75-2.22 175.28-2.64L175.28-2.64Q175.55-2.27 175.55-1.56 175.55-0.85 174.9-0.18 174.26 0.49 172.84 0.49 171.43 0.49 170.23-0.29L170.23-0.29Q169.13 0.49 167.75 0.49 166.37 0.49 165.35-0.24L165.35-0.24Q164.39 0.49 163.21 0.49 162.03 0.49 161.32-0.12 160.61-0.73 160.61-1.88L160.61-1.88Q160.61-2.42 160.98-2.73L160.98-2.73Q161.54-2.29 162.1-2.29L162.1-2.29Q163.17-2.29 163.64-3.49L163.64-3.49 163.64-18.04Q163.64-22.8 161.32-23.54L161.32-23.54Q160.59-23.78 159.73-23.78L159.73-23.78Q157.19-23.78 156.19-21.09L156.19-21.09Q155.87-20.26 155.78-19.29L155.78-19.29 155.78-3.49Q156.24-2.29 157.31-2.29L157.31-2.29Q157.88-2.29 158.44-2.73L158.44-2.73Q158.8-2.42 158.8-1.57 158.8-0.73 158.1-0.12 157.39 0.49 156.19 0.49 154.99 0.49 154.04-0.24L154.04-0.24Q153.04 0.49 151.67 0.49 150.31 0.49 149.16-0.29ZM149.82-8.08L149.82-6.49Q150.92-7.2 151.11-9.59L151.11-9.59Q151.19-10.64 151.21-11.94 151.24-13.23 151.25-13.78 151.26-14.33 151.26-14.6L151.26-14.6 151.26-16.8Q151.26-17.7 151.26-18.85L151.26-18.85 151.21-21.24Q151.16-27.71 150.99-28.44L150.99-28.44Q150.65-29.98 149.82-30.52L149.82-30.52 149.82-22.29Q149.82-17.24 149.71-16.66 149.6-16.09 149.53-15.82L149.53-15.82Q149.31-15.06 147.87-14.58L147.87-14.58Q149.33-14.06 149.53-13.35L149.53-13.35Q149.82-12.18 149.82-8.08L149.82-8.08ZM165.96-15.26L165.96-6.47Q167.18-6.93 167.32-9.67L167.32-9.67Q167.45-12.4 167.45-14.69 167.45-16.97 167.3-18.41 167.15-19.85 166.82-20.69 166.49-21.53 165.98-21.96 165.47-22.39 164.74-22.75L164.74-22.75Q165.66-20.56 165.81-18.75 165.96-16.94 165.96-15.26L165.96-15.26ZM195.37-2.32L195.37-2.32Q193.15 0.61 188.71 0.61L188.71 0.61Q183.29 0.61 180.58-2.64L180.58-2.64Q179.41-4.03 178.97-5.74L178.97-5.74Q178.72-6.76 178.11-7.31 177.5-7.86 176.6-8.3L176.6-8.3Q178.36-9.11 179.11-11.33L179.11-11.33Q179.92-13.67 181.8-14.72L181.8-14.72Q183.83-15.82 186.27-15.88 188.71-15.94 189.88-16.04 191.05-16.14 191.96-16.36L191.96-16.36Q193.64-16.75 194.59-17.8L194.59-17.8 194.59-21.46Q194.59-23.88 193.6-25 192.61-26.12 190.6-26.12 188.59-26.12 187.62-25.38 186.66-24.63 186.66-23.39L186.66-23.39Q186.66-21.48 188.61-21.53L188.61-21.53Q188.22-19.63 186.56-19.63L186.56-19.63Q186.07-19.63 185.61-19.8L185.61-19.8 185.61-19.73Q185.61-19.09 186.19-18.92L186.19-18.92Q185.58-17.99 184.14-18.02 182.7-18.04 181.9-19.56L181.9-19.56Q181.53-19.46 181.05-19.46 180.58-19.46 180-19.78 179.43-20.09 179.09-20.65L179.09-20.65Q180.31-21.39 180.58-22.92L180.58-22.92Q180.87-24.8 183.58-26.73L183.58-26.73Q186.85-29.05 191.93-29.05L191.93-29.05Q200.35-29.05 202.21-23.88L202.21-23.88Q202.82-22.14 202.82-19.78L202.82-19.78 202.82-17.8Q202.82-16.6 203.42-15.84 204.02-15.09 205.46-14.6L205.46-14.6Q203.92-13.89 203.48-13.33L203.48-13.33Q202.82-12.48 202.82-11.38L202.82-11.38 202.82-4.05Q203.53-2.22 204.85-2.22L204.85-2.22Q205.68-2.22 206.21-2.64L206.21-2.64Q206.55-2.17 206.55-1.48 206.55-0.78 205.86-0.15 205.16 0.49 203.77 0.49 202.38 0.49 201.18-0.29L201.18-0.29Q200.13 0.49 199.32 0.49 198.5 0.49 197.9 0.33 197.3 0.17 196.79-0.17L196.79-0.17Q195.64-0.93 195.37-2.32ZM196.91-22.73L196.91-6.47Q198.33-7.03 198.4-11.87L198.4-11.87Q198.4-12.89 198.4-14.21 198.4-15.53 198.39-16.47 198.38-17.41 198.35-18.26L198.35-18.26Q198.25-21.34 197.79-21.94 197.33-22.53 196.91-22.73L196.91-22.73ZM187.9-8.2L187.9-8.2Q187.9-7.18 188.12-6.2 188.34-5.22 188.78-4.49L188.78-4.49Q189.76-2.95 191.54-2.95L191.54-2.95Q192.88-2.95 193.76-4.05L193.76-4.05Q194.59-5.13 194.59-6.81L194.59-6.81 194.59-14.77Q193.03-13.87 190.59-13.53L190.59-13.53Q187.9-13.11 187.9-8.2ZM184.24-2.71L184.24-2.71Q184.48-2.88 184.48-3.15L184.48-3.15Q184.48-3.52 184.14-4.17L184.14-4.17Q182.92-6.42 182.92-7.86 182.92-9.3 183.03-9.94 183.14-10.57 183.32-11.02 183.51-11.47 183.74-11.82 183.97-12.16 184.14-12.43L184.14-12.43Q184.46-12.99 184.46-13.2 184.46-13.4 184.24-13.55L184.24-13.55Q183.24-13.09 182.78-12.45L182.78-12.45Q181.95-11.33 181.55-9.55L181.55-9.55Q181.46-9.03 179.85-8.3L179.85-8.3Q181.41-7.59 181.55-7.06L181.55-7.06Q182.38-4.15 184.24-2.71ZM214.44-0.29L214.44-0.29Q213.32 0.49 211.87 0.49 210.43 0.49 209.79-0.18 209.14-0.85 209.14-1.46L209.14-1.46Q209.14-2.27 209.41-2.64L209.41-2.64Q209.95-2.22 210.78-2.22L210.78-2.22Q212.34-2.22 212.8-3.74L212.8-3.74 212.8-11.35Q212.8-12.43 212.34-12.92L212.34-12.92Q211.68-13.67 209.82-14.58L209.82-14.58Q211.53-15.36 212-15.82L212-15.82Q212.8-16.63 212.8-17.8L212.8-17.8 212.8-21.36Q212.8-23.44 211.39-23.61L211.39-23.61Q210.97-23.66 210.34-23.66 209.7-23.66 209.16-23.24L209.16-23.24Q208.82-23.71 208.82-24.21 208.82-24.71 209.08-25.33 209.34-25.95 209.85-26.51L209.85-26.51Q211.14-27.83 212.84-27.83 214.54-27.83 215.66-27.29L215.66-27.29Q217-28.81 218.54-28.81L218.54-28.81Q221.05-28.81 221.05-26.17L221.05-26.17 221.03-24.15Q223.08-27.42 226.74-28.47L226.74-28.47Q227.94-28.81 229.21-28.81L229.21-28.81Q232.09-28.81 233.99-27.42 235.9-26.03 236.73-23.46L236.73-23.46Q238.56-27.25 242.66-28.42L242.66-28.42Q244-28.81 245.7-28.81 247.4-28.81 248.9-28.16 250.4-27.51 251.45-26.32L251.45-26.32Q253.57-23.83 253.57-19.43L253.57-19.43 253.5-17.8Q253.5-16.63 254.01-16.11L254.01-16.11Q254.77-15.36 256.48-14.58L256.48-14.58Q254.62-13.67 254.18-13.18L254.18-13.18Q253.5-12.43 253.5-11.35L253.5-11.35 253.5-3.74Q253.96-2.22 255.53-2.22L255.53-2.22Q256.11-2.22 256.65-2.64L256.65-2.64Q256.8-2.44 256.98-2.26 257.16-2.08 257.16-1.46 257.16-0.85 256.52-0.18 255.87 0.49 254.46 0.49 253.06 0.49 251.86-0.29L251.86-0.29Q250.77 0.49 249.41 0.49 248.06 0.49 247.03-0.24L247.03-0.24Q246.08 0.49 244.89 0.49 243.71 0.49 243-0.12 242.29-0.73 242.29-1.88L242.29-1.88Q242.29-2.42 242.66-2.73L242.66-2.73Q243.22-2.29 243.78-2.29L243.78-2.29Q244.86-2.29 245.32-3.49L245.32-3.49 245.32-18.04Q245.32-23.78 241.15-23.78L241.15-23.78Q239.95-23.78 238.8-22.39L238.8-22.39Q237.66-21.02 237.31-19.07L237.31-19.07 237.24-3.49Q237.7-2.29 238.78-2.29L238.78-2.29Q239.34-2.29 239.9-2.73L239.9-2.73Q240.27-2.42 240.27-1.57 240.27-0.73 239.56-0.12 238.85 0.49 237.66 0.49 236.46 0.49 235.51-0.24L235.51-0.24Q234.46 0.49 233.13 0.49 231.8 0.49 230.77-0.24L230.77-0.24Q229.82 0.49 228.63 0.49 227.45 0.49 226.74-0.12 226.03-0.73 226.03-1.88L226.03-1.88Q226.03-2.42 226.4-2.73L226.4-2.73Q226.96-2.29 227.52-2.29L227.52-2.29Q228.6-2.29 229.06-3.49L229.06-3.49 229.06-18.04Q229.06-22.61 226.84-23.49L226.84-23.49Q226.13-23.78 225.28-23.78L225.28-23.78Q223.64-23.78 222.45-22.36L222.45-22.36Q221.32-21.04 221.03-19.04L221.03-19.04 220.98-3.49Q221.44-2.29 222.52-2.29L222.52-2.29Q223.08-2.29 223.64-2.73L223.64-2.73Q224.08-2.37 224.08-1.55 224.08-0.73 223.34-0.12 222.59 0.49 221.38 0.49 220.18 0.49 219.25-0.22L219.25-0.22Q218.27 0.49 216.93 0.49 215.59 0.49 214.44-0.29ZM246.93-22.73L246.93-22.73Q247.67-20.95 247.67-15.77L247.67-15.77 247.67-6.47Q248.89-6.93 249.01-9.67L249.01-9.67Q249.15-12.4 249.15-14.51 249.15-16.63 249.03-18.04 248.91-19.46 248.64-20.41L248.64-20.41Q248.15-22.12 246.93-22.73ZM230.67-22.73L230.67-22.73Q231.41-20.95 231.41-15.77L231.41-15.77 231.41-6.47Q232.63-6.93 232.75-9.67L232.75-9.67Q232.9-12.4 232.9-14.51 232.9-16.63 232.77-18.04 232.65-19.46 232.38-20.41L232.38-20.41Q231.89-22.12 230.67-22.73ZM215.15-8.06L215.15-6.47Q216.29-7.2 216.44-9.52L216.44-9.52Q216.54-11.28 216.54-12.67L216.54-12.67 216.54-15.77Q216.54-19.38 216.34-20.41L216.34-20.41Q216-22.17 215.15-22.73L215.15-22.73 215.15-21.14Q215.15-17.02 214.96-16.3 214.78-15.58 214.38-15.21 213.97-14.84 213.19-14.58L213.19-14.58Q214.66-14.06 214.85-13.35L214.85-13.35Q215.15-12.18 215.15-8.06L215.15-8.06Z" opacity="1" transform="matrix(1,0,0,1,0,0)" fill="#ef86c1" class="undefined-text-0" data-fill-palette-color="primary" id="text-0"></path></svg></g></svg></g></svg></g></svg></g><g></g></svg></g></svg></g></svg></g></svg></g><defs></defs></svg><rect width="320" height="360" fill="none" stroke="none" visibility="hidden"></rect></g></svg></g></svg>